<?xml version="1.0" standalone="no"?>
<!DOCTYPE svg PUBLIC "-//W3C//DTD SVG 20010904//EN"
 "http://www.w3.org/TR/2001/REC-SVG-20010904/DTD/svg10.dtd">
<svg version="1.0" xmlns="http://www.w3.org/2000/svg"
 width="323.000000pt" height="274.000000pt" viewBox="0 0 323.000000 274.000000"
 preserveAspectRatio="xMidYMid meet">

<g transform="translate(0.000000,274.000000) scale(0.100000,-0.100000)"
fill="#000000" stroke="none">
<path d="M1440 2679 c-221 -13 -400 -43 -570 -93 -123 -37 -311 -134 -406
-210 -195 -155 -333 -405 -397 -721 -29 -148 -31 -480 -3 -620 41 -205 95
-346 182 -476 54 -81 158 -190 226 -237 139 -95 357 -174 573 -206 195 -29
546 -41 802 -28 254 13 395 31 528 68 310 86 494 221 631 461 123 215 189 553
165 840 -43 500 -240 844 -591 1031 -267 142 -715 218 -1140 191z m580 -48
c513 -77 806 -261 983 -616 227 -457 184 -1132 -94 -1499 -130 -171 -348 -298
-603 -352 -190 -40 -263 -46 -598 -51 -343 -5 -512 3 -687 33 -424 73 -669
236 -821 549 -151 309 -178 752 -70 1116 58 194 148 348 279 479 206 205 492
316 931 359 153 15 523 5 680 -18z"/>
<path d="M1340 2574 c-285 -33 -474 -81 -632 -160 -105 -52 -183 -110 -268
-201 -133 -141 -218 -314 -268 -548 -23 -105 -26 -145 -26 -320 -1 -226 10
-303 70 -492 100 -314 309 -508 646 -598 208 -56 349 -69 753 -69 298 0 394 3
492 17 355 51 571 150 720 332 139 170 211 369 244 678 26 248 -29 554 -141
777 -153 308 -402 471 -847 556 -125 24 -164 27 -423 29 -157 2 -301 1 -320
-1z m553 -298 c334 -99 490 -329 528 -782 10 -113 10 -174 1 -282 -38 -439
-203 -677 -528 -763 -154 -41 -446 -37 -604 8 -172 49 -314 169 -394 334 -89
183 -125 456 -97 727 23 217 94 420 187 532 110 133 286 224 489 254 17 2 98
3 180 1 126 -3 164 -7 238 -29z"/>
<path d="M1500 2229 c-293 -31 -490 -186 -570 -448 -52 -171 -55 -200 -54
-456 0 -227 1 -245 26 -337 67 -246 190 -390 387 -452 158 -50 432 -54 605
-10 183 47 328 185 390 372 42 125 56 216 62 397 16 466 -100 744 -361 866
-130 61 -312 86 -485 68z m355 -43 c147 -39 293 -144 352 -251 l21 -40 -606 3
c-333 1 -608 4 -610 6 -2 2 9 23 23 46 80 126 241 221 423 250 84 13 326 5
397 -14z m370 -328 c24 -22 27 -34 46 -202 11 -99 18 -190 15 -202 -9 -34 -60
-57 -110 -51 -32 5 -48 15 -81 52 -43 49 -80 64 -162 65 l-43 0 0 -388 c0
-347 2 -395 18 -443 21 -63 19 -90 -10 -115 -18 -17 -43 -19 -285 -22 -229 -3
-268 -1 -289 13 -41 27 -47 60 -24 126 19 55 20 83 20 444 l0 385 -47 0 c-79
0 -119 -16 -159 -65 -41 -50 -82 -64 -137 -46 -65 22 -65 29 -21 388 4 30 13
49 31 63 25 20 38 20 619 20 l593 0 26 -22z m82 -275 c-3 -10 -5 -2 -5 17 0
19 2 27 5 18 2 -10 2 -26 0 -35z m22 -230 c2 -185 -47 -425 -112 -548 -41 -77
-141 -176 -211 -209 -70 -33 -77 -33 -63 3 9 24 7 41 -8 88 -17 52 -19 99 -23
431 l-4 372 56 0 c54 0 58 -2 116 -55 58 -53 62 -55 116 -55 48 0 59 4 85 29
25 26 29 37 30 93 l2 63 7 -60 c4 -33 8 -101 9 -152z m-1036 -240 c-3 -309 -7
-386 -20 -421 -9 -26 -13 -60 -10 -83 3 -21 3 -39 1 -39 -25 0 -122 66 -175
119 -134 134 -199 348 -199 654 l0 108 34 -35 c31 -33 38 -36 90 -36 54 0 58
2 116 55 57 52 62 55 114 55 l53 0 -4 -377z m345 -590 c-15 -2 -42 -2 -60 0
-18 2 -6 4 27 4 33 0 48 -2 33 -4z"/>
<path d="M1017 1648 c-10 -84 -17 -156 -17 -160 0 -20 38 -4 62 26 47 59 98
76 227 76 l112 0 -3 -432 c-3 -273 -8 -444 -15 -463 -6 -16 -14 -38 -18 -47
-7 -17 9 -18 239 -18 135 0 246 2 246 4 0 2 -8 21 -17 42 -16 35 -18 85 -21
477 l-3 437 103 0 c134 0 173 -11 225 -66 45 -46 73 -56 73 -26 0 9 -7 81 -17
160 l-16 142 -572 0 -571 0 -17 -152z"/>
</g>
</svg>
